<?xml version="1.0" encoding="utf-8"?>
<!-- Generator: Adobe Illustrator 24.0.2, SVG Export Plug-In . SVG Version: 6.00 Build 0)  -->
<svg version="1.1" id="Layer_1" focusable="false" xmlns="http://www.w3.org/2000/svg" xmlns:xlink="http://www.w3.org/1999/xlink"
	 x="0px" y="0px" viewBox="0 0 18 18" style="enable-background:new 0 0 18 18;" xml:space="preserve">
<path d="M16.9,8.6C15.4,5.6,12.4,3.6,9,3.6s-6.4,2-7.9,4.9c-0.1,0.3-0.1,0.6,0,0.8c1.5,2.9,4.5,4.9,7.9,4.9s6.4-2,7.9-4.9
	C17,9.1,17,8.8,16.9,8.6z M9,13c-2.2,0-4-1.8-4-4s1.8-4,4-4s4,1.8,4,4S11.2,13,9,13L9,13z M9,6.3c-0.2,0-0.5,0.1-0.7,0.1
	C8.7,7,8.6,7.8,8,8.3c-0.4,0.4-1.1,0.4-1.6,0C6,9.6,6.8,11.2,8.3,11.5c1.4,0.4,2.9-0.4,3.3-1.9c0.4-1.4-0.4-2.9-1.9-3.3
	C9.5,6.4,9.2,6.3,9,6.3z"/>
</svg>
