<?xml version="1.0" encoding="utf-8"?>
<!-- Generator: Adobe Illustrator 24.0.2, SVG Export Plug-In . SVG Version: 6.00 Build 0)  -->
<svg version="1.1" id="Layer_1" focusable="false" xmlns="http://www.w3.org/2000/svg" xmlns:xlink="http://www.w3.org/1999/xlink"
	 x="0px" y="0px" viewBox="0 0 18 18" style="enable-background:new 0 0 18 18;" xml:space="preserve">
<path d="M9,13.1c-2.1,0-3.8-1.7-4.1-3.8L2,7.1C1.6,7.5,1.3,8,1,8.6C0.8,8.9,0.8,9.2,1,9.5c1.5,3,4.6,5,8,5c0.8,0,1.5-0.1,2.2-0.3
	L9.7,13C9.5,13.1,9.2,13.1,9,13.1z M17.8,14.7l-3.1-2.4c1-0.8,1.7-1.8,2.3-2.9c0.2-0.2,0.2-0.6,0-0.8c-1.5-3-4.6-5-8-5
	C7.6,3.6,6.1,4,4.9,4.7L1.3,1.9C1,1.7,0.8,1.8,0.7,2l0,0L0.1,2.7C-0.1,2.9,0,3.2,0.1,3.3l16.6,12.8c0.2,0.2,0.5,0.2,0.6-0.1l0,0
	l0.5-0.7C18.1,15.2,18,14.9,17.8,14.7z M12.7,10.7l-1.1-0.8c0.1-0.3,0.2-0.5,0.2-0.8c0-1.5-1.1-2.7-2.6-2.7c-0.3,0-0.5,0-0.8,0.1
	C8.5,6.7,8.5,7,8.5,7.3c0,0.1,0,0.2-0.1,0.3l-2-1.7C7.2,5.3,8.1,5,9,5C11.2,5,13,6.8,13,9l0,0C13,9.6,12.9,10.2,12.7,10.7L12.7,10.7
	z"/>
</svg>
